<?xml version="1.0" encoding="UTF-8"?>
<!DOCTYPE svg PUBLIC "-//W3C//DTD SVG 1.1//EN" "http://www.w3.org/Graphics/SVG/1.1/DTD/svg11.dtd">
<!-- Creator: CorelDRAW X7 -->
<svg xmlns="http://www.w3.org/2000/svg" xml:space="preserve" width="1.9685in" height="1.9685in" version="1.1" style="shape-rendering:geometricPrecision; text-rendering:geometricPrecision; image-rendering:optimizeQuality; fill-rule:evenodd; clip-rule:evenodd"
viewBox="0 0 1969 1969"
 xmlns:xlink="http://www.w3.org/1999/xlink">
 <defs>
  <style type="text/css">
   <![CDATA[
    .fil0 {fill:#F4A026}
    .fil3 {fill:#1CAB43}
    .fil2 {fill:#03B509}
    .fil1 {fill:#F8A021}
   ]]>
  </style>
   <clipPath id="id0">
    <rect x="-13545" y="-8098" width="8125" height="5764"/>
   </clipPath>
 </defs>
 <g id="Layer_x0020_1">
  <metadata id="CorelCorpID_0Corel-Layer"/>
  <path class="fil0" d="M283 1095c-8,-9 -14,-24 -17,-31l-35 -65c-34,-56 -58,-136 -68,-200 -4,-19 -5,-41 -7,-61 -3,-36 0,-72 7,-107l17 -65c7,-23 21,-44 30,-66 9,-22 24,-39 37,-59 4,-5 7,-12 11,-16 11,-13 30,-29 44,-40l30 -25c7,-6 14,-14 22,-18l28 -14c11,-7 25,-13 37,-19 69,-34 43,-25 124,-41 24,-5 55,-7 80,-4 8,1 19,3 28,4 37,2 69,12 102,24 18,6 29,12 45,19 29,15 70,42 93,65 6,5 10,11 16,16 34,26 54,29 89,1l51 -42c25,-20 50,-31 78,-45 4,-2 7,-3 11,-5l33 -13c78,-29 151,-29 232,-13 29,6 57,14 84,25 38,17 66,40 100,62 6,4 11,8 15,12 6,5 8,10 13,15 35,29 73,85 92,124 27,53 46,108 46,172 0,54 -3,151 -27,196 -4,0 -7,1 -10,1l3 2 192 1c-17,-3 -38,-2 -62,-2 3,-6 13,-61 15,-71 8,-50 8,-66 8,-118 0,-35 -7,-88 -17,-121 -21,-65 -24,-88 -61,-148 -17,-29 -35,-58 -58,-82 -11,-12 -21,-25 -33,-36 -22,-21 -52,-47 -76,-63 -60,-40 -121,-69 -193,-85 -10,-2 -20,-4 -29,-5 -67,-12 -151,-9 -216,4 -60,12 -114,34 -164,66 -12,8 -22,17 -34,24 -5,4 -11,8 -16,12 -6,4 -12,8 -19,12 -33,-22 -76,-55 -109,-71 -14,-7 -27,-12 -42,-18 -14,-6 -29,-9 -45,-15 -40,-13 -71,-16 -114,-20 -5,0 -10,0 -15,0 -9,-1 -19,-3 -28,-3l-1 0 -65 6c-80,6 -169,36 -235,81 -21,14 -39,31 -59,46 -8,5 -13,10 -20,15 -28,22 -77,85 -96,117l-25 45c-12,24 -23,49 -32,75 -6,18 -11,36 -16,55 -9,36 -16,82 -16,126 0,24 1,51 4,73 7,57 18,92 35,146 23,70 21,63 53,128l15 31c1,4 3,8 4,11l-3 0 3 1 71 117 0 1 6 0c1,5 79,108 89,119l40 43c16,20 69,78 85,92l27 25c2,2 3,4 5,6 25,20 48,43 73,63l107 79c37,26 73,53 109,79 27,19 75,47 105,62 5,3 8,5 13,8 21,10 54,28 77,28 12,0 67,-24 79,-31 4,-3 7,-4 12,-6 51,-26 150,-88 195,-121l133 -107c3,-2 3,-2 5,-4l35 -30c9,-9 21,-17 30,-26 16,-17 91,-88 101,-103 6,-10 18,-20 26,-29 17,-16 44,-44 44,-68l0 -12c0,-35 -42,-69 -84,-51 -8,3 -15,10 -21,15l-105 116c-5,6 -13,13 -19,19l-89 78c-4,3 -7,5 -10,8 -3,3 -6,5 -10,8 -2,3 -3,3 -5,5l-45 38c-31,27 -94,70 -128,93 -26,17 -54,33 -82,47l-24 13c-14,7 -28,18 -44,18 -8,0 -34,-19 -43,-23 -15,-7 -28,-14 -42,-22 -49,-28 -92,-60 -136,-94l-164 -130 -33 -32c-19,-19 -39,-38 -57,-58l-39 -43c-4,-3 -4,-5 -7,-8l-49 -61 -5 -4 -90 -123z"/>
  <path class="fil1" d="M5791 -11320c-132,0 -249,-51 -321,-147 -75,-100 -113,-214 -79,-349 58,-229 315,-373 557,-266 123,54 235,182 235,363 0,216 -177,399 -392,399zm200 -589c-53,22 -107,63 -152,87 -28,14 -41,1 -71,5 -95,12 -110,149 -20,182 49,18 94,-6 113,-34 14,-20 13,-37 23,-56 9,-17 27,-28 42,-41l87 -75c12,-11 34,-21 33,-47 0,-26 -32,-30 -55,-21zm-275 -300c-71,10 -132,33 -184,63 -226,128 -318,436 -179,675 169,290 582,341 812,64 74,-90 128,-221 108,-377 -33,-248 -265,-465 -557,-425z"/>
  <g id="_625216256">
   <path class="fil1" d="M2185 -11937c47,-6 57,44 11,51 -40,7 -61,21 -70,56 -22,88 82,94 88,98 33,23 -8,84 -96,18 -80,-60 -59,-206 67,-223zm-327 889l707 -1c3,-24 -4,-147 -12,-164l-203 -146c-10,-12 -11,-15 -24,-28 -26,-26 -167,-203 -184,-215 -1,-28 5,-40 34,-36 14,5 109,124 129,146 14,14 33,35 43,50 7,-9 85,-261 93,-293l-120 -74c-16,-9 -32,-14 -35,-31 -3,-19 11,-32 31,-29l126 72c50,31 32,27 101,22 113,-9 259,-24 365,-28 0,-18 -15,-56 -21,-75 -10,-39 8,-130 -44,-257 -90,-220 -308,-287 -530,-258 -142,19 -274,96 -343,200 -37,57 -62,102 -76,177 -21,115 15,234 37,344 11,54 22,109 33,164 18,92 18,75 -11,160 -14,44 -96,274 -96,300z"/>
   <path class="fil2" d="M2541 -11286c17,13 29,22 48,34 25,18 112,12 152,14 37,2 40,-4 57,-24 53,-57 124,-175 167,-245 36,-59 22,-49 2,-119 -12,-38 -32,-90 -38,-126l-436 33c-9,15 -101,313 -101,330l149 103z"/>
   <path class="fil2" d="M3659 -11628c-47,-99 -33,-120 -139,-114l21 88c26,4 64,-1 50,37 -8,22 -46,16 -73,16 -60,0 -119,0 -179,0 -72,0 -138,-15 -130,48 4,33 25,32 60,31l174 0c31,1 44,27 24,45 -16,14 -138,7 -169,7 -30,0 -50,5 -52,36 -2,32 16,43 45,44 58,0 116,0 175,-1 23,0 63,4 44,39 -15,28 -117,5 -163,14 -22,5 -34,34 -22,59 13,26 38,19 70,19 30,0 59,0 89,0 30,0 64,-6 67,23 5,56 -108,13 -140,35 -15,11 -22,44 -6,63 14,17 54,11 79,11 29,0 57,0 86,0 59,0 102,3 143,34 21,16 29,23 46,42l33 35c11,9 2,4 14,9 -1,-86 0,-173 -1,-259 0,-30 8,-98 -10,-118 -80,-94 -79,-126 -136,-243z"/>
   <path class="fil1" d="M3090 -11886l338 0c93,0 80,-39 80,-146 0,-80 -77,-61 -146,-61l-305 0c-21,-1 -37,-6 -37,15 1,7 8,35 10,44l25 130c5,25 8,18 35,18z"/>
   <path class="fil1" d="M3284 -11653l203 0 -43 -181 -204 0c-1,16 36,168 44,181z"/>
  </g>
  <g id="_625212704">
   <path class="fil2" d="M5528 -6724c104,-24 238,113 280,154 66,63 129,174 168,279 41,108 178,691 12,726 -42,9 -391,7 -446,2 -73,-6 -96,-54 -96,-132l0 -888c0,-77 17,-125 82,-141zm-140 361l0 67 -1 53 0 76c4,161 -4,326 1,487 2,75 34,129 84,158 54,32 376,17 459,18 88,0 126,-17 164,-71 53,-74 21,-333 8,-434 -20,-140 -49,-253 -102,-373 -87,-198 -356,-493 -536,-380 -109,68 -75,246 -77,399z"/>
   <path class="fil2" d="M4378 -5637c-19,-74 10,-335 23,-415 38,-230 127,-448 300,-586 38,-31 86,-62 142,-78 72,-22 130,6 145,70 13,54 5,767 5,885 0,250 -44,198 -463,200 -80,1 -135,-8 -152,-76zm673 -530l0 -76 0 -61 1 -70c-11,-158 39,-315 -84,-390 -144,-88 -372,125 -446,232 -108,156 -161,334 -188,533 -14,110 -45,346 12,429 34,51 83,68 169,67 81,0 162,0 242,0 112,0 290,30 294,-185 3,-159 -4,-320 0,-479z"/>
   <path class="fil1" d="M5388 -6296l0 -67c-97,-53 -70,-258 -70,-388 0,-555 -54,-454 210,-458 29,0 77,-12 43,-47 -17,-18 -76,-10 -102,-10 -228,0 -208,2 -208,229 0,144 0,288 0,432 0,152 9,265 127,309z"/>
   <path class="fil1" d="M5621 -7368c8,-66 -90,-45 -211,-45 -77,0 -180,-15 -234,32 -60,52 -50,112 -50,204 0,81 -7,188 -1,265 4,48 43,53 55,20 6,-19 3,-105 3,-131 0,-331 -37,-333 190,-333 64,0 208,14 248,-12z"/>
   <path class="fil1" d="M5052 -6374l-1 70c59,-28 127,-106 131,-198 3,-60 7,-290 -6,-330 -61,-16 -51,26 -50,81 0,51 0,102 0,154 0,142 6,147 -74,223z"/>
   <path class="fil1" d="M4635 -6384c-38,34 16,40 26,117 16,129 -129,246 -126,279 11,94 141,-74 176,-187 34,-110 -31,-248 -76,-209z"/>
   <path class="fil1" d="M5714 -6238c0,98 128,306 177,268 27,-37 -14,-57 -37,-88 -166,-220 -28,-253 -46,-329 -76,-21 -94,93 -94,149z"/>
   <path class="fil1" d="M4957 -6174c-50,-15 -140,54 -181,80 -23,14 -154,114 -109,160 34,34 56,-30 72,-50 97,-122 236,-104 218,-190z"/>
   <path class="fil1" d="M5051 -6243l0 76c111,-101 225,-101 336,0l0 -76c-148,-83 -187,-83 -336,0z"/>
   <path class="fil1" d="M5728 -5928l45 -3c18,-129 -266,-249 -275,-248 -16,2 -59,29 18,70 128,67 151,78 212,181z"/>
   <path class="fil1" d="M5477 -6275c87,44 249,-31 221,-164l-41 -7c-28,46 -14,85 -65,112 -64,34 -131,-23 -115,59z"/>
   <path class="fil1" d="M4904 -6263l54 -8c21,-106 -104,6 -157,-107 -7,-15 -8,-45 -22,-58 -23,-21 -44,-8 -47,22 -6,76 89,165 172,151z"/>
  </g>
  <g style="clip-path:url(#id0)">
   <image x="-13545" y="-8098" width="8125" height="5764" xlink:href="nadi_Images\nadi_ImgID1.png"/>
  </g>
  <g id="_625212640">
   <path class="fil2" d="M5765 -8689c0,22 15,29 34,29 12,0 14,-8 24,-15l0 -150c51,-24 108,-12 127,67 74,290 -111,535 -175,810l-422 0c-63,0 -64,8 -68,-19 -4,-30 -5,-41 -12,-70 -58,-227 -254,-385 -254,-517 0,-42 2,-80 38,-112 18,-17 53,-33 88,-33l0 179c0,30 43,16 48,15 12,-53 5,-518 5,-611l160 0 0 354c0,40 59,64 58,-24l1 -188c7,-25 41,-31 72,-31 125,0 46,133 77,267 39,9 24,7 49,-10 0,-27 0,-55 0,-82 0,-33 5,-44 5,-78 43,-28 109,-33 133,-7 30,33 12,170 12,226zm-645 -427l25 0 0 359c-135,0 -259,147 -126,368 62,103 125,169 176,299 12,30 20,54 28,88 4,15 7,30 9,49 2,27 5,32 10,54 62,14 246,-1 350,8l197 1c46,0 43,-68 74,-159 18,-55 42,-112 64,-168l60 -173c33,-121 65,-330 -7,-446 -43,-68 -112,-52 -157,-52 -22,-96 -67,-97 -150,-97 -25,0 -42,6 -58,14 -10,-43 -29,-68 -68,-82 -37,-12 -99,-11 -131,5l0 -68 20 0 0 -150 -316 0 0 150z"/>
   <path class="fil1" d="M4398 -8806c0,-144 204,-140 204,-9 0,35 -3,54 -28,79 -57,55 -176,26 -176,-70zm218 -106c3,-33 28,-27 59,-20 13,56 -20,27 -30,63 15,-3 15,-5 34,-5l0 20 -68 0c34,-64 39,-28 49,-63 -26,-13 -10,5 -44,5zm-295 -824l402 0 0 717 -402 0 0 -717zm-49 -39l0 1139c0,11 4,14 15,14l480 0 0 -1168 -480 0c-11,0 -15,4 -15,15z"/>
   <path class="fil1" d="M4820 -9717l1047 0c20,0 46,18 57,30 14,15 25,35 25,62l0 208c0,62 -40,102 -101,102l-296 0 0 68 320 0c68,0 145,-77 145,-145l0 -243c0,-47 -22,-81 -54,-110 -30,-27 -65,-45 -120,-45l-1023 0 0 73z"/>
   <path class="fil1" d="M5120 -9441l0 131 316 0c0,-60 21,-213 -73,-213l-170 0c-37,0 -73,42 -73,82z"/>
   <path class="fil2" d="M4359 -9072c0,11 4,14 15,14l296 0c24,0 14,-44 14,-111l-325 0 0 97z"/>
   <polygon class="fil2" points="4359,-9208 4684,-9208 4684,-9320 4359,-9320 "/>
   <path class="fil2" d="M4359 -9358l325 0 0 -97c0,-11 -3,-15 -14,-15l-311 0 0 112z"/>
   <path class="fil1" d="M5445 -9329l5 106c34,0 82,8 82,-53 0,-70 -35,-68 -72,-68 -11,0 -15,4 -15,15z"/>
   <path class="fil1" d="M4456 -8811c0,75 88,86 88,-4 0,-73 -88,-74 -88,4z"/>
  </g>
  <path class="fil2" d="M4335 -10964c-10,92 45,257 81,327 12,25 23,45 37,67 43,68 67,89 120,138 137,130 435,218 669,145 111,-35 190,-94 256,-154 158,-143 245,-360 229,-587 -11,-160 -25,-38 -244,-162 -76,-44 -119,-82 -169,-142 -81,-97 -139,-223 -141,-370 0,-34 1,-65 5,-99 3,-21 17,-73 14,-90 -2,-15 -30,-50 -40,-64 -39,-60 -77,-136 -97,-206 -7,-24 -28,-63 -50,-27 -7,11 -18,60 -24,76 -19,53 -43,96 -70,137l-171 235c-14,21 -29,40 -44,60l-215 294c-59,81 -116,168 -131,279 111,-10 137,-41 174,66 11,32 54,175 68,190 32,-70 72,-143 107,-213 18,-37 32,-81 65,-97 48,-23 83,13 97,48 25,60 148,456 162,478 11,-12 107,-205 123,-237 21,-40 37,-81 58,-121 58,-119 137,-54 183,-86 20,-13 30,-27 63,-27 117,2 116,180 0,181 -35,0 -43,-17 -64,-28 -15,-7 -57,-15 -74,-8 -19,8 -53,90 -65,114l-120 238c-20,40 -45,78 -101,78 -57,1 -87,-31 -103,-75 -47,-127 -90,-271 -136,-402 -57,92 -92,228 -163,255 -64,25 -116,-21 -133,-66l-53 -158 -103 13z"/>
  <path class="fil3" d="M1323 729c-38,0 -51,16 -68,44 -17,28 -45,67 -62,96 -3,5 -3,8 -8,9 -1,-4 -4,-7 -5,-11 -2,-5 -4,-8 -6,-13 -4,-9 -8,-17 -11,-25 -20,-43 -50,-107 -67,-148 -13,-33 -33,-69 -82,-52 -16,6 -27,23 -35,38 -4,8 -6,16 -9,25 -9,28 -15,59 -22,86 -2,10 -6,18 -8,28 -3,9 -4,19 -7,29 -4,19 -10,38 -15,57 -2,9 -5,18 -7,27 -3,11 -5,19 -8,29l-46 170c-2,11 -14,49 -15,57l-2 0c-2,-8 -31,-60 -37,-72l-45 -92c-16,-31 -47,-105 -72,-119 -12,-7 -27,-12 -43,-7 -24,7 -43,34 -55,54l-32 50c-4,6 -6,11 -10,18 -7,12 -14,21 -22,33 -8,13 -33,61 -49,61l-181 0c-2,0 -4,0 -5,-1l-142 1 0 0c-3,0 -5,0 -7,0l-68 0c-13,2 -24,5 -33,12 -9,7 -21,28 -21,43 0,18 4,34 16,47 22,22 57,15 88,15l265 0c18,0 32,2 50,2 18,0 36,0 54,0 58,0 66,-6 98,-60 7,-11 13,-22 20,-33 9,-15 30,-53 43,-62 2,3 3,8 4,12 5,11 10,24 16,35 17,29 58,110 68,133 7,16 14,30 22,45 12,24 46,95 63,106 11,7 24,7 38,7l0 0c46,0 54,-44 62,-71l56 -213c3,-11 6,-24 10,-35 7,-23 11,-47 18,-71l19 -71c4,-12 7,-24 9,-35 3,-12 7,-25 8,-38 11,7 22,39 28,53l38 85c12,29 28,58 65,58 11,0 22,-4 29,-8 23,-15 37,-42 51,-64 5,-8 10,-15 15,-23 3,-4 4,-7 7,-11l22 -35c5,-9 10,-16 15,-25 6,2 9,8 12,13 16,20 35,57 51,73 8,9 19,14 35,15 31,1 67,0 99,0 17,0 30,1 48,1l246 1c8,0 13,-1 23,-1l73 -1c26,-1 48,-25 48,-52 0,-71 -46,-66 -103,-66l1 0 -212 3 -3 -2 -85 2c-10,0 -17,-1 -25,-1 -17,-1 -35,1 -51,-1 -8,-1 -11,1 -19,-2l-52 -75c-8,-12 -33,-52 -43,-60 -10,-8 -19,-17 -35,-17z"/>
 </g>
</svg>
