<?xml version="1.0" encoding="UTF-8"?>
<!DOCTYPE svg PUBLIC "-//W3C//DTD SVG 1.1//EN" "http://www.w3.org/Graphics/SVG/1.1/DTD/svg11.dtd">
<!-- Creator: CorelDRAW X7 -->
<svg xmlns="http://www.w3.org/2000/svg" xml:space="preserve" width="1.9685in" height="1.9685in" version="1.1" style="shape-rendering:geometricPrecision; text-rendering:geometricPrecision; image-rendering:optimizeQuality; fill-rule:evenodd; clip-rule:evenodd"
viewBox="0 0 1969 1969"
 xmlns:xlink="http://www.w3.org/1999/xlink">
 <defs>
  <style type="text/css">
   <![CDATA[
    .fil2 {fill:#03B509}
    .fil0 {fill:#D52B1E}
    .fil1 {fill:#F8A021}
   ]]>
  </style>
   <clipPath id="id0">
    <rect x="-13545" y="-8098" width="8125" height="5764"/>
   </clipPath>
 </defs>
 <g id="Layer_x0020_1">
  <metadata id="CorelCorpID_0Corel-Layer"/>
  <path class="fil0" d="M4736 1258c-9,92 46,256 81,327 12,24 24,44 37,66 43,69 68,90 120,139 138,130 436,217 669,144 112,-35 191,-93 257,-153 157,-143 244,-360 229,-588 -11,-159 -25,-38 -245,-162 -76,-43 -119,-81 -169,-141 -80,-98 -138,-224 -140,-370 -1,-35 0,-66 5,-99 3,-21 16,-74 14,-90 -3,-16 -31,-51 -40,-65 -39,-59 -78,-136 -98,-206 -6,-24 -28,-63 -50,-27 -7,11 -17,60 -23,77 -19,52 -43,95 -70,137l-172 235c-14,20 -29,39 -43,59l-216 295c-58,81 -116,167 -130,278 110,-10 136,-41 173,67 11,32 54,175 68,190 33,-71 72,-144 107,-214 18,-37 32,-81 65,-97 48,-23 83,14 97,49 25,59 148,456 162,477 12,-12 108,-204 124,-236 20,-41 37,-81 57,-122 58,-118 137,-53 184,-85 19,-14 30,-28 62,-27 117,2 116,179 0,180 -35,1 -42,-16 -63,-27 -15,-8 -57,-16 -75,-9 -19,9 -53,90 -65,114l-120 238c-20,40 -44,79 -101,79 -57,0 -87,-32 -103,-76 -47,-126 -90,-270 -135,-402 -57,93 -92,228 -163,255 -65,25 -116,-20 -134,-65l-53 -158 -103 13zm1456 -357c-131,0 -248,-51 -320,-147 -75,-100 -113,-214 -80,-348 58,-230 316,-374 557,-267 123,54 235,182 235,364 0,215 -176,398 -392,398zm201 -589c-54,22 -108,64 -153,87 -28,15 -41,2 -71,5 -94,12 -110,149 -20,183 49,18 94,-6 114,-35 13,-19 12,-37 23,-56 9,-16 26,-27 41,-41l87 -75c12,-10 34,-20 33,-46 0,-26 -32,-31 -54,-22zm-275 -299c-71,9 -132,32 -185,62 -226,129 -317,437 -178,676 169,289 581,340 811,63 74,-89 128,-221 108,-376 -32,-249 -265,-466 -556,-425z"/>
  <path class="fil0" d="M4553 -1952c0,-27 3,-57 8,-82l16 -63c5,-14 8,-22 13,-31 15,-30 25,-59 47,-83l18 -28c3,-4 6,-6 11,-11 2,-2 3,-3 5,-5l76 -65c1,0 1,-1 2,-1l117 -60c1,0 6,-2 9,-3l63 -13c28,-5 60,-7 94,-2 20,3 41,3 68,10 39,10 80,25 114,45 81,50 66,51 97,75 38,29 60,16 91,-9 1,-1 2,-2 2,-2l11 -9c25,-22 50,-43 82,-57l51 -24c103,-42 198,-38 298,-8 68,21 90,44 143,80 11,7 13,12 22,21 73,67 137,188 139,295 0,63 -4,140 -27,198 -16,5 -246,6 -270,1 -20,-11 9,10 -7,-5l-74 -110c-1,-1 -2,-2 -2,-2 0,-1 -1,-2 -1,-3 -3,-4 -6,-8 -8,-11l-22 -17c-27,-12 -61,1 -75,23l-80 124 -85 -188c-15,-36 -31,-80 -84,-64 -44,13 -55,99 -68,147 -3,13 -6,22 -8,29 -3,12 -4,19 -7,31l-91 339c-1,0 -1,2 -2,3l-70 -137c-17,-33 -58,-134 -85,-149 -62,-34 -94,44 -119,83 -5,8 -6,9 -12,18 -6,8 -4,8 -10,16 -6,10 -14,22 -21,32 -9,14 -32,61 -49,61l-180 0c-16,0 -23,-26 -30,-39l-30 -56c-1,-2 -4,-6 -6,-9 -35,-64 -63,-154 -71,-227l-3 -58zm-7 389c-34,0 -80,-5 -102,7 -22,12 -38,51 -20,82 17,30 37,28 84,28 38,0 75,0 113,0l79 105c7,9 12,13 19,21l86 97c22,25 122,115 147,134l207 150c36,24 158,100 196,97l54 -20c1,0 2,-1 3,-1l74 -39c0,-1 1,-1 2,-2 1,0 1,-1 2,-1l71 -43c0,-1 1,-1 2,-2l63 -42c1,-1 4,-2 4,-3l52 -39c1,0 4,-2 4,-3l18 -13c0,0 1,-1 2,-2l33 -26c1,-1 2,-2 2,-2l93 -81c1,-1 2,-2 2,-2 4,-3 5,-6 9,-9l42 -41c2,-2 3,-4 5,-6l47 -47c1,-1 3,-4 3,-5l14 -16c19,-17 51,-51 55,-73 10,-51 -41,-91 -86,-68 -15,8 -25,23 -37,35 -42,45 -79,90 -126,134l-143 121c-33,26 -51,39 -87,64 -45,32 -90,58 -138,83 -59,31 -37,24 -98,-7 -47,-24 -95,-54 -136,-85l-168 -131c-44,-36 -97,-88 -134,-130 -29,-33 -61,-66 -86,-102 35,0 127,4 158,-1 27,-4 48,-42 62,-66l3 -5c6,-12 43,-73 56,-83 7,31 36,77 51,107 17,35 96,203 116,221 12,10 28,13 47,11 12,-1 20,-4 28,-10 18,-14 22,-32 27,-52l8 -26c0,-1 0,-2 1,-3l3 -12c0,-1 0,-2 0,-3l26 -99c0,-1 1,-2 1,-3l25 -95c1,-1 1,-2 1,-3l51 -194c3,-10 6,-22 7,-35 11,9 20,35 27,52l36 80c12,29 24,58 58,64 15,2 28,-1 38,-6l19 -16c3,-3 6,-8 8,-10l38 -60c1,-1 1,-2 2,-2l22 -35c0,0 1,-1 1,-2 1,-1 1,-2 2,-2l20 -33c10,8 38,53 48,69 23,35 31,33 88,33 148,0 297,4 445,0 24,0 41,-12 49,-33 8,-20 3,-46 -4,-57 -17,-30 -43,-27 -94,-27l17 -91c6,-46 6,-102 1,-149l-8 -49c0,-1 0,-2 0,-3 -1,-1 -2,-5 -2,-6l-23 -75c-11,-32 -26,-60 -42,-86 -6,-11 -14,-25 -21,-35 -9,-11 -15,-20 -25,-33 -92,-110 -214,-185 -360,-204 -20,-3 -31,-3 -54,-4 -111,-5 -221,20 -310,78 -16,11 -54,41 -67,46 -66,-40 -77,-64 -169,-94 -34,-12 -67,-22 -106,-26 -21,-2 -36,-2 -60,-4 -16,-1 -9,-3 -28,-1 -71,7 -60,0 -145,21 -52,12 -132,48 -176,87 -26,24 -44,31 -72,61 -135,145 -194,348 -143,547l31 101c7,18 11,32 19,48 10,22 38,71 43,90z"/>
  <g id="_706922960">
   <path class="fil1" d="M4680 -4459c48,-7 57,43 11,51 -40,6 -61,20 -70,55 -22,88 82,94 88,98 33,23 -8,84 -96,18 -80,-59 -59,-206 67,-222zm-327 888l707 -1c3,-24 -4,-147 -12,-164l-203 -146c-10,-12 -10,-15 -23,-28 -27,-26 -168,-203 -185,-215 0,-27 6,-39 35,-36 13,5 108,124 128,146 14,14 33,35 43,50 7,-9 85,-261 93,-293l-120 -73c-16,-10 -32,-15 -35,-32 -2,-19 11,-32 31,-29l126 72c51,31 32,27 101,22 114,-9 259,-24 365,-27 1,-19 -15,-57 -20,-76 -11,-39 7,-130 -45,-257 -89,-220 -308,-287 -530,-258 -142,19 -274,96 -343,200 -37,57 -62,102 -76,177 -21,115 15,234 37,344 11,54 22,109 33,164 18,93 18,75 -10,161 -15,43 -97,273 -97,299z"/>
   <path class="fil2" d="M5036 -3809c18,13 30,22 48,35 25,17 112,11 152,13 37,2 40,-4 57,-23 53,-58 124,-176 167,-246 36,-59 23,-49 2,-119 -11,-38 -31,-89 -38,-126l-436 33c-9,15 -100,313 -101,330l149 103z"/>
   <path class="fil2" d="M6154 -4151c-47,-98 -33,-119 -138,-114l20 88c26,4 64,-1 50,37 -8,22 -46,16 -73,16 -60,0 -119,0 -179,0 -72,0 -138,-15 -130,48 5,33 25,32 60,32l175 -1c30,2 44,28 23,45 -16,14 -138,8 -169,7 -30,0 -50,5 -52,36 -2,32 16,44 45,44 58,0 117,0 175,-1 23,0 63,4 44,39 -15,28 -116,5 -163,14 -22,5 -34,34 -22,59 13,26 38,20 70,20 30,0 60,0 89,0 30,0 64,-7 67,23 5,55 -108,12 -139,34 -16,11 -23,44 -7,63 14,17 54,11 79,11 29,0 57,0 86,0 59,0 102,3 143,34 21,16 29,23 47,42l32 35c11,9 2,4 14,9 -1,-86 0,-173 -1,-259 0,-30 8,-98 -10,-118 -80,-94 -79,-125 -136,-243z"/>
   <path class="fil1" d="M5585 -4409l339 0c92,0 79,-39 79,-146 0,-79 -77,-61 -146,-61l-305 0c-21,-1 -37,-5 -36,15 0,7 7,35 9,44l25 130c5,25 8,18 35,18z"/>
   <path class="fil1" d="M5779 -4176l203 0 -43 -181 -204 0c-1,17 36,169 44,181z"/>
  </g>
  <g id="_706926576">
   <path class="fil2" d="M1294 719c103,-24 238,113 280,154 66,63 129,174 168,279 41,108 178,691 11,726 -41,9 -391,7 -446,2 -72,-6 -95,-54 -96,-132l0 -888c0,-77 17,-125 83,-141zm-141 361l0 67 0 53 0 76c4,161 -5,326 0,487 3,75 35,129 84,158 55,32 376,17 459,18 88,0 126,-17 165,-71 53,-74 21,-333 7,-434 -19,-140 -48,-253 -101,-373 -87,-198 -356,-493 -536,-380 -110,68 -76,246 -78,399z"/>
   <path class="fil2" d="M143 1806c-19,-74 11,-335 24,-415 37,-230 126,-448 300,-586 38,-31 86,-62 141,-78 72,-22 131,6 146,70 12,54 4,767 4,885 0,250 -44,198 -463,200 -79,1 -134,-8 -152,-76zm674 -530l-1 -76 0 -61 1 -70c-11,-157 39,-315 -84,-390 -144,-88 -371,125 -445,232 -108,157 -161,334 -188,533 -15,110 -45,346 11,429 35,51 84,68 170,67 80,0 161,0 242,0 112,0 289,30 293,-185 3,-159 -3,-320 1,-479z"/>
   <path class="fil1" d="M1153 1147l0 -67c-97,-53 -69,-258 -69,-388 0,-555 -54,-454 209,-458 29,0 78,-12 44,-47 -18,-18 -77,-10 -103,-10 -228,0 -207,2 -207,229 0,144 0,288 0,432 0,152 8,265 126,309z"/>
   <path class="fil1" d="M1386 75c9,-66 -89,-45 -211,-45 -76,0 -179,-15 -233,32 -60,52 -51,112 -51,204 0,81 -6,188 0,265 4,48 43,53 54,20 7,-19 3,-105 3,-131 0,-331 -37,-333 191,-333 63,0 207,14 247,-12z"/>
   <path class="fil1" d="M817 1069l-1 70c60,-28 127,-106 132,-198 3,-60 7,-290 -7,-330 -61,-16 -50,26 -50,81 1,51 0,102 0,154 0,142 7,147 -74,223z"/>
   <path class="fil1" d="M400 1059c-38,34 16,41 26,117 16,129 -129,246 -125,279 10,94 140,-74 175,-187 34,-110 -31,-248 -76,-209z"/>
   <path class="fil1" d="M1480 1205c0,98 127,306 176,268 27,-37 -13,-57 -37,-88 -165,-220 -28,-253 -46,-329 -76,-21 -93,93 -93,149z"/>
   <path class="fil1" d="M723 1269c-50,-15 -140,54 -181,80 -24,14 -154,114 -110,160 34,34 56,-30 73,-50 96,-122 236,-104 218,-190z"/>
   <path class="fil1" d="M816 1200l1 76c110,-101 225,-101 336,0l0 -76c-149,-83 -188,-83 -337,0z"/>
   <path class="fil1" d="M1493 1515l46 -3c17,-129 -266,-249 -276,-248 -15,2 -59,29 19,70 128,67 151,78 211,181z"/>
   <path class="fil1" d="M1242 1168c87,44 250,-31 222,-164l-42 -7c-28,46 -14,85 -64,112 -64,34 -132,-23 -116,59z"/>
   <path class="fil1" d="M669 1180l54 -8c22,-106 -103,6 -156,-107 -7,-15 -8,-45 -23,-58 -22,-21 -43,-8 -46,22 -7,76 89,165 171,151z"/>
  </g>
  <g style="clip-path:url(#id0)">
   <image x="-13545" y="-8098" width="8125" height="5764" xlink:href="pernafasan_Images\pernafasan_ImgID1.png"/>
  </g>
 </g>
</svg>
